<svg xmlns="http://www.w3.org/2000/svg" viewBox="-100 -80 200 200" width="512" height="512">
  <defs>
    <clipPath id="bottom">
      <rect x="-100" y="0" width="200" height="100"/>
    </clipPath>
    <clipPath id="inside">
      <ellipse id="inside" cx="0" cy="0" rx="85" ry="45"/>
    </clipPath>
    <clipPath id="bits-clip">
      <ellipse cx="0" cy="15" rx="85" ry="48" clip-path="url(#inside)"/>
    </clipPath>
  </defs>
  <ellipse cx="0" cy="55" ry="40" rx="60" fill="#527ac6"/>
  <circle cx="0" cy="0" r="90" fill="#83aeff" clip-path="url(#bottom)"/>
  <ellipse cx="0" cy="0" rx="90" ry="50" fill="#527ac6"/>
  <ellipse id="inside" cx="0" cy="0" rx="85" ry="45" fill="#83aeff"/>
  <ellipse cx="0" cy="15" rx="85" ry="45" fill="#f7ead4" clip-path="url(#inside)"/>
  <g id="bits" cx="0" cy="15" rx="85" ry="45" clip-path="url(#bits-clip)"><circle r="2.525379130175055" cx="73.93717284657488" cy="2.6536093675630736" opacity="0.2530660025560607" fill="#d7b16b"/><circle r="1.5344159171296927" cx="-24.17339093064055" cy="5.94765572342399" opacity="0.3525823953451706" fill="#d7b16b"/><circle r="1.8173616496200342" cx="-84.02003222350844" cy="-27.630591036892323" opacity="0.46083901716913217" fill="#f3f1ee"/><circle r="4.341476228208151" cx="54.82491384011565" cy="2.3447968914659736" opacity="0.2777341119027712" fill="#f3f1ee"/><circle r="4.4669277586402565" cx="-63.35517269400499" cy="24.751703483608896" opacity="0.4009671748451907" fill="#d7b16b"/><circle r="1.897164820766359" cx="-8.464654280677138" cy="-24.493250514454356" opacity="0.25354994758089255" fill="#d7b16b"/><circle r="2.746525670413296" cx="20.922263481187766" cy="34.57543131643685" opacity="0.2782905161010715" fill="#d7b16b"/><circle r="4.256047917224706" cx="58.992320039138676" cy="35.24019330121024" opacity="0.6217728706310075" fill="#f3f1ee"/><circle r="4.150264432624924" cx="24.023315901362267" cy="-25.996924075773673" opacity="0.2687573606150773" fill="#f3f1ee"/><circle r="1.047830570610774" cx="-28.130958864938876" cy="-20.069772778174332" opacity="0.60948495037132" fill="#d7b16b"/><circle r="3.7570460120653566" cx="66.24916456324817" cy="33.07806605268185" opacity="0.6551227880990309" fill="#d7b16b"/><circle r="4.762886492856607" cx="-23.72413365496967" cy="3.5550397717547275" opacity="0.5648471042552534" fill="#d7b16b"/><circle r="3.4479370456304403" cx="81.9022431124752" cy="-16.10756594043367" opacity="0.37775952531282264" fill="#f3f1ee"/><circle r="2.7243132886135433" cx="-2.619966580968308" cy="44.37096191739481" opacity="0.3110308014407217" fill="#d7b16b"/><circle r="2.7100171434639027" cx="59.943562035478" cy="0.22466772579995076" opacity="0.4511220447842207" fill="#d7b16b"/><circle r="1.2223005984753184" cx="-19.764900447908303" cy="-3.110979711107491" opacity="0.3536310493277933" fill="#d7b16b"/><circle r="3.824253365504824" cx="30.231551761726607" cy="7.288684855687803" opacity="0.4354215022877348" fill="#f3f1ee"/><circle r="4.636472397452394" cx="55.39874857346736" cy="-14.527447446414246" opacity="0.30629798646927947" fill="#d7b16b"/><circle r="2.759546207769172" cx="7.322518098269796" cy="-5.857989569885506" opacity="0.5931802147098624" fill="#d7b16b"/><circle r="1.869449087880716" cx="33.10367027294193" cy="-15.413321313455148" opacity="0.3998323224743633" fill="#d7b16b"/><circle r="1.8815992876672718" cx="40.84251005388427" cy="-23.376512875731667" opacity="0.7271204744148165" fill="#f3f1ee"/><circle r="1.3430198166200138" cx="-38.85719592864018" cy="-43.96163737369617" opacity="0.4827953154537065" fill="#d7b16b"/><circle r="2.5033141762348867" cx="-64.00315846830605" cy="14.979368534678883" opacity="0.5043518493994873" fill="#f3f1ee"/><circle r="1.39456117517389" cx="26.71217629962151" cy="27.25763140845595" opacity="0.7051254307669563" fill="#f3f1ee"/><circle r="2.6617179203778343" cx="29.070862673866475" cy="6.031473412380938" opacity="0.7181766632060335" fill="#d7b16b"/><circle r="1.913518105123467" cx="20.1931951959908" cy="5.251934908722816" opacity="0.35012423376377444" fill="#d7b16b"/><circle r="3.5399666924148505" cx="53.15167819801717" cy="-15.407525551262934" opacity="0.7162804776766838" fill="#d7b16b"/><circle r="2.725132727443529" cx="-3.9709588808789364" cy="2.163265086870676" opacity="0.262520721374113" fill="#f3f1ee"/><circle r="2.785400639725819" cx="75.0246768802581" cy="34.92951799269133" opacity="0.5429995984336311" fill="#f3f1ee"/><circle r="2.7905534896061934" cx="11.799862818346368" cy="-8.23800826208123" opacity="0.32302733058432853" fill="#f3f1ee"/><circle r="1.7736778777615942" cx="45.14529098881967" cy="-6.77042962667879" opacity="0.4464237917512558" fill="#f3f1ee"/><circle r="2.8355275743676702" cx="44.91213950327446" cy="-0.5832342375813437" opacity="0.4029915113604401" fill="#d7b16b"/><circle r="2.9885811137397758" cx="50.015826204197104" cy="-13.785702401349823" opacity="0.38170191085800803" fill="#f3f1ee"/><circle r="4.3791206772783955" cx="46.890827291873876" cy="10.22151361356764" opacity="0.3846291800541286" fill="#f3f1ee"/><circle r="2.9016267715668467" cx="69.37094396570838" cy="31.498692718639656" opacity="0.39275549160220374" fill="#d7b16b"/><circle r="2.9515740310015293" cx="25.221153594509307" cy="2.498057789130349" opacity="0.4245864770201762" fill="#d7b16b"/><circle r="3.6470233714115476" cx="74.3922806566932" cy="26.248537713068526" opacity="0.5113681149245931" fill="#f3f1ee"/><circle r="3.282076610868778" cx="-32.61389541903432" opacity="0.36909259802998157" fill="#f3f1ee" cy="-25.644"/><circle r="1.0803544885149718" cx="-63.660925540190824" cy="-20.671410260656426" opacity="0.6478669484780624" fill="#f3f1ee"/><circle r="1.1211021934611423" cx="29.55216853488239" cy="30.577084239080037" opacity="0.5786667049357801" fill="#f3f1ee"/><circle r="1.6926809614540979" cx="7.562981138321396" cy="-26.256109146184667" opacity="0.2956631785676673" fill="#f3f1ee"/><circle r="3.085149070744561" cx="-43.46442506364412" cy="-32.07101876003661" opacity="0.7332510530542824" fill="#d7b16b"/><circle r="1.3067066028215777" cx="77.7543037525528" cy="5.157127076195368" opacity="0.5678184896896616" fill="#f3f1ee"/><circle r="3.7002251188730164" cx="14.127722902428753" cy="-8.428660081937187" opacity="0.6710386735621316" fill="#d7b16b"/><circle r="1.521807736305297" cx="-43.16689008242786" cy="-44.039182057086066" opacity="0.3993958774978079" fill="#f3f1ee"/><circle r="4.2595179885675005" cx="-60.702282492224334" cy="37.7158914616064" opacity="0.5713439511771692" fill="#f3f1ee"/><circle r="4.33587012018124" cx="-7.490116445585363" cy="29.4382530268518" opacity="0.46335044183250373" fill="#d7b16b"/><circle r="2.7977939142947035" cx="8.196035486547817" opacity="0.594721986868662" fill="#f3f1ee" cy="-29.958"/><circle r="4.738250946006859" cx="-15.96377898170492" cy="-41.674541132596644" opacity="0.4627846316256374" fill="#f3f1ee"/><circle r="2.879977824659093" cx="-42.55929643724357" cy="-42.1723454033954" opacity="0.595124498461048" fill="#d7b16b"/><circle r="3.8512297120803898" cx="-29.113054043728607" cy="-10.063033696011779" opacity="0.5195460114131045" fill="#d7b16b"/><circle r="1.9590562154952424" cx="-41.57834574766976" cy="33.014485024486795" opacity="0.45114454952384414" fill="#f3f1ee"/><circle r="3.9014785606680595" cx="-12.388373929955485" cy="35.13757701920138" opacity="0.6082503401758956" fill="#d7b16b"/><circle r="4.550666015964088" cx="36.43200783696104" cy="44.83389724878828" opacity="0.676497787552965" fill="#d7b16b"/><circle r="3.581782380316613" cx="77.79863967382731" cy="-31.461328751253912" opacity="0.30015677072099495" fill="#d7b16b"/><circle r="4.9497874914025" cx="51.71073677435975" cy="7.404432837786107" opacity="0.40398586673035625" fill="#f3f1ee"/><circle r="3.4331196730503435" cx="-77.40133342779751" cy="-1.4622114480024528" opacity="0.3205218284215489" fill="#f3f1ee"/><circle r="4.4103328817070775" cx="84.60203859568948" cy="20.28413054845087" opacity="0.5161378753417244" fill="#f3f1ee"/><circle r="4.635735362744247" cx="39.636633398310195" cy="12.048672455988266" opacity="0.27155549270477647" fill="#f3f1ee"/><circle r="1.768687013368483" cx="-45.35131021753081" cy="5.130233150687911" opacity="0.4478820913237999" fill="#f3f1ee"/><circle r="4.684475489006999" cx="62.850492280412425" cy="-40.42536278984433" opacity="0.3975483021406341" fill="#f3f1ee"/><circle r="3.320113033954872" cx="51.10371390946578" cy="-42.519274330707894" opacity="0.32488759526661687" fill="#f3f1ee"/><circle r="1.0389068536584967" cx="70.91227633503728" cy="1.8633375655200013" opacity="0.6773663469827085" fill="#f3f1ee"/><circle r="3.531092267808938" cx="-84.09445818697253" cy="-30.196100294319667" opacity="0.727290541075714" fill="#d7b16b"/><circle r="3.9907795348591826" cx="-74.81795800724316" cy="36.078027933636555" opacity="0.5974228772549472" fill="#d7b16b"/><circle r="1.5493044126005286" cx="-75.50316996393565" cy="28.87146343834611" opacity="0.7492706038328814" fill="#f3f1ee"/><circle r="2.989169633561463" cx="41.728474230133315" cy="-29.17819182868412" opacity="0.58900681292548" fill="#f3f1ee"/><circle r="3.2605209804269712" cx="-22.763386101920744" cy="41.11261875583582" opacity="0.7173212059906018" fill="#f3f1ee"/><circle r="3.7131217922604147" cx="18.4706926288732" cy="30.41953748783556" opacity="0.49946158949862846" fill="#d7b16b"/><circle r="4.146228757939788" cx="3.5719520524868766" cy="38.63490946287851" opacity="0.46933375956432255" fill="#d7b16b"/><circle r="4.0503014580990815" cx="-63.36798704512902" cy="-12.651156481493729" opacity="0.3999595094933813" fill="#f3f1ee"/><circle r="4.202340103671171" cx="14.821938095872424" cy="22.319937531558182" opacity="0.3919063196118973" fill="#f3f1ee"/><circle r="1.8756881239080085" cx="61.32598699343949" cy="26.86326565637821" opacity="0.5571761554501751" fill="#f3f1ee"/><circle r="4.818357824683753" cx="-33.68622420084829" cy="-36.44468543321013" opacity="0.44275077967389137" fill="#d7b16b"/><circle r="4.774884549162173" cx="-59.64576429633232" cy="35.85822603134841" opacity="0.37736386477258266" fill="#d7b16b"/><circle r="2.044648467461041" cx="-76.07847060186795" cy="-30.572478024524177" opacity="0.3463047694654831" fill="#f3f1ee"/><circle r="1.9896661573885162" cx="33.40790297030186" cy="7.6606442493117015" opacity="0.522056406803523" fill="#f3f1ee"/><circle r="1.5570344228121549" cx="-7.691813582569436" cy="-2.6240857493576786" opacity="0.5767184267598617" fill="#f3f1ee"/><circle r="3.7425580405593433" cx="66.80557641306206" cy="-7.035208787822586" opacity="0.4086726305995548" fill="#d7b16b"/><circle r="4.728721704245188" cx="58.22162793062034" cy="41.838407227621666" opacity="0.3608358980807703" fill="#f3f1ee"/><circle r="3.1410251604186867" cx="47.13761235710558" cy="13.960680634522461" opacity="0.6050570334011215" fill="#f3f1ee"/><circle r="3.2678555624935814" cx="53.43413060029324" cy="-41.26458562417674" opacity="0.3245951596890113" fill="#f3f1ee"/><circle r="2.2091572262474344" cx="-59.19510117942823" cy="-12.882962682124706" opacity="0.5309347807322549" fill="#d7b16b"/><circle r="1.7066564136841684" cx="12.322734993994818" cy="-17.6651232706723" opacity="0.2739467126214778" fill="#f3f1ee"/><circle r="3.2719107457387335" cx="-19.939702927326103" cy="35.42376532513132" opacity="0.6502375877348048" fill="#d7b16b"/><circle r="4.270453271789103" cx="-74.54391354833997" cy="33.757597253809536" opacity="0.6580534198047544" fill="#f3f1ee"/><circle r="1.4707148555834233" cx="70.07899182769772" cy="-31.189780203202652" opacity="0.5103049734254155" fill="#d7b16b"/><circle r="2.4747077162491085" cx="-34.44092882240553" cy="-18.85561919320735" opacity="0.3163354128543416" fill="#f3f1ee"/><circle r="1.360824412597705" cx="-61.228517197232776" cy="16.86153053845084" opacity="0.49063634299867026" fill="#d7b16b"/><circle r="3.0619093054016457" cx="10.462191263710661" cy="-15.458916588119973" opacity="0.4999186972171492" fill="#f3f1ee"/><circle r="1.3535078997521404" cx="-35.928877431598835" cy="44.64879849614626" opacity="0.39001664462135743" fill="#d7b16b"/><circle r="2.1076236176460377" cx="42.1868186374913" cy="-10.262783939792843" opacity="0.6085918385920759" fill="#f3f1ee"/><circle r="1.9394541586930907" cx="41.31346434120122" cy="15.808065459994658" opacity="0.37182239256796973" fill="#d7b16b"/><circle r="2.22685864457788" cx="-53.76749334856024" cy="17.456634665921086" opacity="0.5269495068625711" fill="#d7b16b"/><circle r="1.4247434340453147" cx="0.04584395087124715" cy="32.2301040317066" opacity="0.48717213060631787" fill="#d7b16b"/><circle r="4.019978129298433" cx="-53.20759638879194" cy="-10.556270252431224" opacity="0.6977709652134267" fill="#d7b16b"/><circle r="3.371225578697674" cx="-83.03139134033049" cy="41.04355275211791" opacity="0.4778295893260576" fill="#f3f1ee"/><circle r="1.9653674697458614" cx="77.97205628319267" cy="-20.11077577155047" opacity="0.6023936269527792" fill="#d7b16b"/><circle r="2.2789444977500426" cx="3.270112504052599" opacity="0.6562214565510383" fill="#d7b16b" cy="-30.479"/><circle r="4.031791751506033" cx="-6.64393193722837" cy="31.47556199012572" opacity="0.3469924450324787" fill="#d7b16b"/><circle r="4.914786350776538" cx="-52.42734596676128" cy="-28.183143160045578" opacity="0.5359975241466128" fill="#f3f1ee"/><circle r="3.1950465491198834" cx="59.761116325959584" cy="-39.76653191932566" opacity="0.6596885745023446" fill="#f3f1ee"/><circle r="2.2229803165761437" cx="-38.923673050521295" cy="-13.690002582159623" opacity="0.2704623858951353" fill="#f3f1ee"/><circle r="1.1692063949591214" cx="-32.50799109174786" cy="21.680371338405397" opacity="0.6173339872092094" fill="#d7b16b"/><circle r="2.680858946826259" cx="59.54566281459788" cy="-31.169964143704803" opacity="0.42995390152603635" fill="#f3f1ee"/><circle r="1.474435571427926" cx="-6.284029275287003" cy="29.191753918507374" opacity="0.4876836280053314" fill="#f3f1ee"/><circle r="1.1968868749902342" cx="64.35116170054403" cy="12.209221758256326" opacity="0.6694547792343973" fill="#d7b16b"/><circle r="1.5446952069739184" cx="3.0908381030702303" cy="16.85830676073687" opacity="0.32651762649761434" fill="#d7b16b"/><circle r="1.8405642691017268" cx="38.10666791732068" cy="2.4074222050142016" opacity="0.59028370259456" fill="#d7b16b"/><circle r="4.493925306816159" cx="54.43817640502992" cy="-1.1931105384206586" opacity="0.39837076026002943" fill="#f3f1ee"/><circle r="4.408785821074778" cx="26.056793684028577" cy="25.986577379654044" opacity="0.3729890593654402" fill="#f3f1ee"/><circle r="3.407370081799638" cx="-45.58875807593317" cy="-29.21480587348607" opacity="0.7238718992842201" fill="#d7b16b"/><circle r="4.337355807816142" cx="-78.14324925659794" cy="10.476027290684248" opacity="0.3110672072023923" fill="#d7b16b"/><circle r="1.5786309338924478" cx="41.46199332112717" cy="7.937520826746789" opacity="0.5174946595565653" fill="#f3f1ee"/><circle r="2.1809811774807972" cx="-41.65901624298273" cy="-5.46842606186388" opacity="0.40821433353357034" fill="#f3f1ee"/><circle r="3.0234196686020467" cx="-69.3584580470095" cy="-41.72442906936489" opacity="0.7105217998793538" fill="#d7b16b"/><circle r="3.807435564539216" cx="10.974934333886221" cy="-44.344607863505686" opacity="0.26363227996093297" fill="#d7b16b"/><circle r="3.979420511215311" cx="-31.93735010160638" cy="-20.934249004709603" opacity="0.5278495239012526" fill="#f3f1ee"/><circle r="3.559079344174237" cx="75.25293366019373" cy="39.65719534039383" opacity="0.47367769302916424" fill="#f3f1ee"/><circle r="3.4482905618323634" cx="23.433656333775012" cy="5.83684758081087" opacity="0.7278949332377402" fill="#d7b16b"/><circle r="3.302885095579661" cx="-32.294859780457095" cy="35.23805675613268" opacity="0.6062473556503483" fill="#f3f1ee"/><circle r="1.8763884300189106" cx="-12.060803964526842" cy="41.46828570453396" opacity="0.35528630269439876" fill="#d7b16b"/><circle r="1.487963372763335" cx="76.0737404603232" cy="5.0823758421909195" opacity="0.46652127781185965" fill="#d7b16b"/><circle r="2.654054752161345" cx="46.106853025855365" cy="28.03638192852969" opacity="0.37486546508693314" fill="#f3f1ee"/><circle r="3.4014064612201222" cx="-8.603562026724406" cy="-2.754399073900502" opacity="0.5751736578760956" fill="#f3f1ee"/><circle r="1.538085700739288" cx="-15.89788304820938" cy="24.80187171726416" opacity="0.3796751718461961" fill="#d7b16b"/><circle r="1.4233833268267948" cx="24.647434475287625" cy="-14.531122924484263" opacity="0.4441249452725491" fill="#d7b16b"/><circle r="1.6368839317165986" cx="-66.6540939728107" cy="-23.844476407172603" opacity="0.4428846715973356" fill="#f3f1ee"/><circle r="2.6787631895775537" cx="55.887822343403535" cy="44.54011542820707" opacity="0.47900220847241015" fill="#d7b16b"/><circle r="1.3948105253929235" cx="-62.458383019431224" cy="-12.687107003971844" opacity="0.6184677590867724" fill="#d7b16b"/><circle r="4.499815789067402" cx="-36.11929617188096" cy="-36.00726573945668" opacity="0.28404646028650765" fill="#f3f1ee"/><circle r="3.5409390368625497" cx="8.792542589518003" cy="33.07550335887203" opacity="0.36160948487800965" fill="#d7b16b"/><circle r="4.653141698912858" cx="38.68801210580235" cy="-9.771264040866084" opacity="0.503548104127677" fill="#f3f1ee"/><circle r="1.9795022726278528" cx="-24.957650064537294" cy="-20.793858621788107" opacity="0.7305550113152899" fill="#f3f1ee"/><circle r="4.771611994491801" cx="60.45556217115118" cy="5.550629869661057" opacity="0.648318098817639" fill="#d7b16b"/><circle r="4.906663257280556" cx="-49.8047596737304" cy="-12.40422113319596" opacity="0.6011123756181426" fill="#d7b16b"/><circle r="3.102711510974548" cx="75.98773272410871" cy="-31.587079676313287" opacity="0.5493142754053615" fill="#f3f1ee"/><circle r="2.5506782136953103" cx="-74.8215776407618" cy="10.915640083929693" opacity="0.6623010440834534" fill="#f3f1ee"/><circle r="2.640953695699718" cx="-54.83968597256429" cy="20.879834599161274" opacity="0.40052825015982685" fill="#d7b16b"/><circle r="2.0376377276011084" cx="46.562678303524564" cy="-6.679822359895641" opacity="0.6513405972338588" fill="#f3f1ee"/><circle r="4.325363873951625" cx="-33.62068419772507" cy="43.18939271006041" opacity="0.3906803510996578" fill="#f3f1ee"/><circle r="2.2959094439312917" cx="60.78739337985568" cy="0.8283546976226319" opacity="0.633543132599248" fill="#f3f1ee"/><circle r="4.214210117694845" cx="-36.60422087126124" cy="-16.218021021460476" opacity="0.4493776857063224" fill="#f3f1ee"/><circle r="1.0731280190238843" cx="71.39833359187755" cy="-3.9729095752518195" opacity="0.45994652629852123" fill="#f3f1ee"/><circle r="1.6535993908207653" cx="30.37133438633663" cy="22.660317812622168" opacity="0.2855068644403835" fill="#f3f1ee"/><circle r="1.4622330998263489" cx="-10.37859921396037" cy="-23.5483645353466" opacity="0.5656334539573273" fill="#f3f1ee"/><circle r="1.20485480684503" cx="2.9811458324414666" cy="34.982774383155146" opacity="0.6398367538489227" fill="#f3f1ee"/><circle r="2.7384515252845625" cx="-6.083748909974757" cy="11.241222472140551" opacity="0.3720171866002912" fill="#d7b16b"/><circle r="2.2415790959350694" cx="-70.4590525285581" cy="26.738543615871304" opacity="0.3396084553939168" fill="#f3f1ee"/><circle r="2.619383186792312" cx="-77.38283106265132" cy="-38.1368766555599" opacity="0.6800101651399721" fill="#d7b16b"/><circle r="4.86137862277195" cx="-30.70897934505315" cy="40.18109758398186" opacity="0.5675481990071811" fill="#d7b16b"/><circle r="1.144163017144788" cx="-53.820168744511655" cy="33.70816288312764" opacity="0.5561582154413187" fill="#d7b16b"/><circle r="1.4942051404718608" cx="44.36804636965207" cy="30.7610823331642" opacity="0.6833722698634208" fill="#d7b16b"/><circle r="3.699459307126182" cx="-4.5397935425300675" cy="-16.728181388186357" opacity="0.7281859666547188" fill="#d7b16b"/><circle r="4.680454109894566" cx="62.16050694114229" cy="23.237582225772126" opacity="0.2697645557893713" fill="#f3f1ee"/><circle r="2.8639375243131693" cx="-34.35944208087639" opacity="0.5955837057607831" fill="#f3f1ee" cy="-26.547"/><circle r="3.6288793050331933" cx="-46.22339091778904" cy="-38.97938274046353" opacity="0.5106539206515391" fill="#d7b16b"/><circle r="1.5705784320868599" cx="0.6029473749380188" cy="13.772585424622374" opacity="0.40211748989805196" fill="#f3f1ee"/><circle r="2.4087850005410707" cx="-38.42668527896221" cy="-4.74149840213121" opacity="0.5030072559570704" fill="#f3f1ee"/><circle r="3.424094765958308" cx="-76.48851008361244" cy="-22.323666152968528" opacity="0.6685252768618117" fill="#d7b16b"/><circle r="1.8459077498725582" cx="22.76345597556194" cy="3.854550601719037" opacity="0.6343541711513998" fill="#f3f1ee"/><circle r="4.339332696765912" cx="-56.52488590901214" cy="6.534429037337876" opacity="0.7209329050077493" fill="#d7b16b"/><circle r="2.6858578114588814" cx="-12.988051772575847" cy="22.805147527975176" opacity="0.3143023528035613" fill="#d7b16b"/><circle r="3.7918036901794028" cx="-58.89654334564594" cy="-28.596872683951062" opacity="0.4528257600915878" fill="#f3f1ee"/><circle r="3.5288828983201905" cx="22.182024376459314" cy="16.428095416703687" opacity="0.5321726674362809" fill="#d7b16b"/><circle r="2.8761426850476943" cx="22.77166326130205" cy="2.7486897767460183" opacity="0.6249306726746247" fill="#d7b16b"/><circle r="4.535077055067834" cx="-71.41555361245118" cy="44.50974613355669" opacity="0.6298463218068097" fill="#f3f1ee"/><circle r="4.107151835348694" cx="-75.7184439616669" cy="7.8975131235706995" opacity="0.5650276163372758" fill="#f3f1ee"/><circle r="3.0442205193636434" cx="27.98280798596464" opacity="0.38609417419853737" fill="#f3f1ee" cy="-26.105"/><circle r="1.542355691076073" cx="-48.0700550307077" cy="35.74455195773204" opacity="0.5838550110103595" fill="#f3f1ee"/><circle r="2.9965037105229464" cx="-25.619954955520097" cy="9.628647756443529" opacity="0.5169172283962813" fill="#f3f1ee"/><circle r="1.7455639794879603" cx="-39.74881984201839" cy="-35.71980344018491" opacity="0.4398527021001349" fill="#f3f1ee"/><circle r="2.2760354966133347" cx="-28.517574613946532" cy="37.76876243278529" opacity="0.45186253899170115" fill="#d7b16b"/><circle r="3.2108712075377155" cx="-33.95230549116471" cy="19.156493592845372" opacity="0.38902898273554337" fill="#f3f1ee"/><circle r="2.4599233152472904" cx="30.199821303555787" cy="-6.532361094303195" opacity="0.7402261935349067" fill="#f3f1ee"/><circle r="3.255528618596775" cx="-58.601566241244946" cy="-5.099991138085845" opacity="0.48706726874534323" fill="#d7b16b"/><circle r="3.8641087413644146" cx="-14.462237394771345" cy="-15.202554047156875" opacity="0.3755662210487842" fill="#d7b16b"/><circle r="2.9647559721011136" cx="-2.7770149656456242" cy="-36.433490038367914" opacity="0.6237633277096883" fill="#d7b16b"/><circle r="3.3564312198604775" cx="-17.556409001990307" cy="-10.81457454253512" opacity="0.45358632906360846" fill="#d7b16b"/><circle r="3.597625946055761" cx="-12.103869460702398" cy="-26.213472347926565" opacity="0.36156766702592863" fill="#d7b16b"/><circle r="4.37604432714056" cx="6.615989839083527" cy="5.949936662847968" opacity="0.5093123921153262" fill="#f3f1ee"/><circle r="1.3749460854773417" cx="-36.24440315254484" cy="-33.92638925344704" opacity="0.5954519745196309" fill="#f3f1ee"/><circle r="3.2143123689558606" cx="34.297069219802154" cy="23.390594818516238" opacity="0.5722173424423294" fill="#d7b16b"/><circle r="3.995663445931843" cx="66.93994441405866" cy="26.76029263506329" opacity="0.705098600015089" fill="#d7b16b"/><circle r="4.04568112644067" cx="38.83568411289009" cy="-24.49342844616927" opacity="0.6126605126035489" fill="#d7b16b"/><circle r="1.0411349922999937" cx="30.6087032490865" cy="-40.50192438422862" opacity="0.5419459234281748" fill="#f3f1ee"/><circle r="2.19853662166573" cx="-52.273898985475796" cy="-17.061505097576575" opacity="0.6295037136895951" fill="#f3f1ee"/><circle r="3.0028941805968032" cx="-50.05312704305893" cy="26.799171669674323" opacity="0.6369742625845402" fill="#d7b16b"/><circle r="3.8621060015493227" cx="-42.637909548424965" opacity="0.29481027944214977" fill="#f3f1ee" cy="-21.971"/><circle r="2.329090929404254" cx="62.094221695244336" cy="27.746144594669044" opacity="0.6981727017128543" fill="#d7b16b"/><circle r="3.1665575521388933" cx="-39.198325616615364" opacity="0.36590503152112985" fill="#f3f1ee" cy="-24.243"/><circle r="1.4369140312417508" cx="-23.985290459807757" cy="34.0286803167551" opacity="0.6250615396498799" fill="#d7b16b"/><circle r="1.835756548827955" cx="30.798040042757318" cy="44.71594979751122" opacity="0.5551989835110414" fill="#f3f1ee"/><circle r="4.086031762039452" cx="17.844837315849272" cy="39.183551935201535" opacity="0.4373345385957538" fill="#f3f1ee"/><circle r="2.3751023440422343" cx="58.62621029768605" cy="33.28242971028083" opacity="0.47284301053711975" fill="#d7b16b"/><circle r="1.7283835162752008" cx="-44.40142524296522" cy="-21.776786157521446" opacity="0.7057916321717018" fill="#d7b16b"/><circle r="2.9557312908565945" cx="49.312908368290074" cy="-37.491077158289016" opacity="0.2619211205941744" fill="#f3f1ee"/><circle r="3.6880159223345763" cx="-1.9394980459150823" cy="31.029854818174115" opacity="0.5768016849069014" fill="#f3f1ee"/><circle r="2.9558664715161536" cx="-15.36889986092466" cy="-26.499305782182233" opacity="0.43064902524882487" fill="#d7b16b"/><circle r="2.307366027171562" cx="41.07301736812596" cy="17.62810122762491" opacity="0.2798844736011391" fill="#d7b16b"/><circle r="3.596801605681861" cx="47.34342461012465" cy="39.77924654118849" opacity="0.6592411009536908" fill="#d7b16b"/><circle r="2.8341022519313404" cx="-42.576728131910556" cy="6.835413069720701" opacity="0.34615706877286" fill="#d7b16b"/><circle r="1.2224715462184728" cx="44.6248432483234" cy="-13.013832389561147" opacity="0.47545863902589863" fill="#f3f1ee"/><circle r="2.0089974316804198" cx="52.96146674598971" cy="-2.2316420819839786" opacity="0.371977615528645" fill="#d7b16b"/><circle r="2.3150002770953213" cx="-51.56774081186233" cy="-19.73062537175693" opacity="0.5740275529760455" fill="#f3f1ee"/><circle r="4.712387103096802" cx="-47.8661943386852" cy="-16.473619762054" opacity="0.4058155612997091" fill="#d7b16b"/><circle r="1.8785353491651864" cx="-56.17472615182698" cy="-27.59137887997994" opacity="0.43087665973481276" fill="#d7b16b"/><circle r="3.4571255768800366" cx="76.17333607050348" cy="12.235733424228188" opacity="0.25765017515716176" fill="#d7b16b"/><circle r="1.1202999929968476" cx="27.13782322469189" cy="-43.642023515519355" opacity="0.33593846447838593" fill="#f3f1ee"/><circle r="2.4057954745190484" cx="3.015792361500731" cy="40.57098865819965" opacity="0.6641007245416698" fill="#d7b16b"/><circle r="1.8513334524170455" cx="70.70443192373948" cy="-14.459195161590529" opacity="0.3181831824085347" fill="#d7b16b"/><circle r="2.5551032552504855" cx="-24.922334969889363" cy="33.138700767423835" opacity="0.35541584921952435" fill="#d7b16b"/><circle r="1.7266331061627374" cx="-20.045067066170443" cy="-14.479718625545692" opacity="0.4171823194522979" fill="#f3f1ee"/><circle r="1.7149232262346414" cx="-63.229314907426975" cy="1.6521197771730212" opacity="0.41818636047550634" fill="#f3f1ee"/><circle r="2.3845907200897303" cx="22.48712641443737" cy="-38.35631367991808" opacity="0.609514561774717" fill="#d7b16b"/><circle r="4.733599305834355" cx="-45.068306947463626" cy="4.608382758303984" opacity="0.6984085413285442" fill="#f3f1ee"/><circle r="3.9831860727168156" cx="-48.78458371105062" cy="-32.16097716463505" opacity="0.6937529537800085" fill="#d7b16b"/><circle r="4.392074635887806" cx="58.82751278344822" cy="-35.94159485635233" opacity="0.32067537331740326" fill="#f3f1ee"/><circle r="2.7194990989232912" cx="-76.80241409211197" cy="6.847429931549014" opacity="0.4656026162343625" fill="#d7b16b"/><circle r="1.918851036922487" cx="76.04509689082876" cy="-10.597927121804048" opacity="0.7257354864330464" fill="#f3f1ee"/><circle r="4.7529035536362905" cx="-64.5251052475041" cy="22.596126129614284" opacity="0.5043097890264927" fill="#d7b16b"/><circle r="2.380876429129891" cx="-2.625418326543861" cy="-7.4867429722555805" opacity="0.645760694324403" fill="#d7b16b"/><circle r="2.292618562544069" cx="47.3810485623655" cy="-19.231634566593858" opacity="0.6820377501123509" fill="#d7b16b"/><circle r="1.39375124214981" cx="-73.813413361203" cy="-35.15413441976076" opacity="0.6053515945484418" fill="#f3f1ee"/><circle r="3.611237050034379" cx="-39.85412593179653" cy="10.640538395326661" opacity="0.42221618873562194" fill="#f3f1ee"/><circle r="1.1232864953019006" cx="-74.31739538199648" cy="-11.57584661160547" opacity="0.6621183010812127" fill="#d7b16b"/><circle r="4.111257874353387" cx="57.80268012536283" cy="27.25023854330725" opacity="0.7165444887934557" fill="#f3f1ee"/><circle r="1.3489853370442333" cx="-75.63521019879558" cy="-21.025127161254854" opacity="0.2529807354222217" fill="#f3f1ee"/><circle r="2.437942257479649" cx="-36.47332923488556" cy="-9.203845530171817" opacity="0.6088690939836721" fill="#f3f1ee"/><circle r="3.4353468714825524" cx="-31.935951157185375" cy="-20.560333032388296" opacity="0.28950082106370284" fill="#d7b16b"/><circle r="1.433260505633048" cx="3.352675680636744" cy="-15.007920528299149" opacity="0.6430594081790776" fill="#d7b16b"/><circle r="3.5634291370118376" cx="-14.574154124456314" cy="-17.149129469887267" opacity="0.6444793847936496" fill="#d7b16b"/><circle r="1.4798736877023697" cx="-60.5333057350396" cy="-26.944983386091295" opacity="0.3051611360307119" fill="#d7b16b"/><circle r="1.4520772276260412" cx="22.009676695416076" cy="-34.73490059928265" opacity="0.4568411609047739" fill="#f3f1ee"/><circle r="4.5214723460637725" cx="-13.124868344872434" cy="-10.227940864369188" opacity="0.2946697008619483" fill="#d7b16b"/><circle r="1.934642835068641" cx="-26.4156943286284" cy="-25.487878814211378" opacity="0.6344492745628992" fill="#d7b16b"/><circle r="4.129389004243875" cx="0.02606880530079847" cy="-17.96782169623988" opacity="0.7082459532264511" fill="#d7b16b"/><circle r="3.105658528882079" cx="43.243839640549865" cy="-25.385020278898526" opacity="0.6520557681795112" fill="#d7b16b"/><circle r="3.052069585392781" cx="-60.172706177437334" cy="8.896283938014268" opacity="0.6787108905298289" fill="#f3f1ee"/><circle r="4.640623677545525" cx="-6.219940379072667" cy="-20.576195035453814" opacity="0.3451749475942502" fill="#f3f1ee"/><circle r="3.7797847897797" cx="-40.31713469206421" cy="-18.00770666569727" opacity="0.7116445498926949" fill="#d7b16b"/><circle r="1.1167918671481534" cx="2.8288684405263895" cy="26.346467820021708" opacity="0.2893780001809938" fill="#d7b16b"/><circle r="1.917341278961243" cx="7.76183407022499" cy="-25.437942089165396" opacity="0.47515668094281693" fill="#d7b16b"/><circle r="1.0987238684731997" cx="27.92957771924559" cy="-4.825851006625434" opacity="0.5904690802609531" fill="#d7b16b"/><circle r="3.38975700161285" cx="-18.369913019848177" cy="42.97604228440095" opacity="0.44641193177767374" fill="#f3f1ee"/><circle r="4.785023142858442" cx="56.63259915369973" cy="42.78301312114129" opacity="0.5289004663498096" fill="#d7b16b"/><circle r="3.1186057202675523" cx="13.86007001119708" cy="25.8399606300009" opacity="0.2688641852714297" fill="#d7b16b"/><circle r="4.388231764278409" cx="63.06727482649463" cy="-43.52809453572854" opacity="0.7432800886702142" fill="#d7b16b"/><circle r="4.409594759044867" cx="-33.1460849228413" cy="43.605912971939404" opacity="0.2762415829329941" fill="#d7b16b"/><circle r="4.769231650743158" cx="-72.81301404122819" opacity="0.2828692702114012" fill="#f3f1ee" cy="-10.112"/><circle r="3.5511047331322785" cx="28.151425045399126" cy="34.43960658378144" opacity="0.4275259330442065" fill="#f3f1ee"/><circle r="1.7795104403529027" cx="8.642323134567402" cy="-1.889135246400514" opacity="0.5521087015950097" fill="#d7b16b"/><circle r="2.8896657187177905" cx="-1.4296705956928135" cy="24.197373324321383" opacity="0.5203727884038287" fill="#d7b16b"/><circle r="4.00745152586944" cx="-13.583493927820921" cy="34.465553075737034" opacity="0.30849373398172064" fill="#d7b16b"/><circle r="1.01409307638458" cx="37.181010318794776" cy="-4.619147917146665" opacity="0.46949384542996725" fill="#d7b16b"/><circle r="2.464073985216653" cx="63.451994218046686" opacity="0.47511550070587055" fill="#f3f1ee" cy="-14.262"/><circle r="4.1492259226645425" cx="-74.1635631868539" cy="17.637590922880605" opacity="0.5955868547868423" fill="#d7b16b"/><circle r="2.4048898422040135" cx="-46.65475196203175" cy="-18.27778351660183" opacity="0.5580493710600164" fill="#d7b16b"/><circle r="4.891565310961292" cx="-71.90441928019274" cy="-32.1863774800886" opacity="0.31333540566148393" fill="#d7b16b"/><circle r="4.185418473974687" cx="27.01842315449684" cy="41.2947359515624" opacity="0.7241976309583507" fill="#f3f1ee"/><circle r="1.6972017439439977" cx="-18.11419391580379" cy="-22.68935629048908" opacity="0.382789664201994" fill="#f3f1ee"/><circle r="2.849881707478266" cx="-38.53009901538128" cy="-23.591506155587517" opacity="0.6278328751214097" fill="#d7b16b"/><circle r="3.9534671484662893" cx="-84.97974658051928" cy="20.750711395496797" opacity="0.43617937732701867" fill="#f3f1ee"/><circle r="4.63066555312747" cx="33.54199871728556" cy="-22.42425998885112" opacity="0.45866481002286313" fill="#f3f1ee"/><circle r="4.341618644648527" cx="-14.000364815654493" cy="-17.919728548258945" opacity="0.4242716934905405" fill="#f3f1ee"/><circle r="1.0027567551491008" cx="75.08583800422197" cy="7.849224550810457" opacity="0.38871793338832944" fill="#d7b16b"/><circle r="2.7066982751559494" cx="-82.53376192538472" cy="26.874079624477478" opacity="0.6289502287701054" fill="#f3f1ee"/><circle r="3.847081774924064" cx="-41.54575877258068" cy="24.79197766435715" opacity="0.36286027404880866" fill="#d7b16b"/><circle r="2.4424226176793637" cx="-67.92303396643064" cy="-25.22159015094881" opacity="0.7218105753350709" fill="#d7b16b"/><circle r="2.19747249595542" cx="-19.02959635487418" cy="0.8789436840549258" opacity="0.6793820927330245" fill="#f3f1ee"/><circle r="1.5985124358088894" cx="75.82848278774065" cy="-10.819839745007075" opacity="0.34474183122456464" fill="#f3f1ee"/><circle r="2.956030635205866" cx="20.159146728088665" cy="7.957583502414756" opacity="0.30218643845803966" fill="#d7b16b"/><circle r="1.6922392041210235" cx="41.45036924238335" cy="-22.388942551649095" opacity="0.6432816385219684" fill="#d7b16b"/><circle r="2.319155912338423" cx="-47.590760064961096" cy="-10.902405076913121" opacity="0.48006609440105696" fill="#f3f1ee"/><circle r="4.806903557624524" cx="-37.357202558350174" cy="44.47862363215737" opacity="0.6376336834063441" fill="#f3f1ee"/><circle r="4.412235355702711" cx="16.88207438660094" cy="24.168483555966276" opacity="0.4770081160270085" fill="#f3f1ee"/><circle r="1.4490933004961963" cx="-27.245258372644535" cy="-28.343546802367236" opacity="0.4458987680910649" fill="#d7b16b"/><circle r="4.070927919210746" cx="29.20983011672643" cy="25.17000597396637" opacity="0.7268459648060612" fill="#d7b16b"/><circle r="4.037055155095411" cx="66.1819329002134" cy="26.775857224771755" opacity="0.5113777711161542" fill="#d7b16b"/><circle r="3.532733727779134" cx="33.69763268665703" cy="42.9790046196225" opacity="0.691009589017641" fill="#d7b16b"/><circle r="3.4357111969689558" cx="43.073994701930125" cy="-41.93172928927881" opacity="0.5748437799316743" fill="#d7b16b"/><circle r="1.96246042806361" cx="81.92493160627116" cy="38.994561851130804" opacity="0.4767682500032906" fill="#d7b16b"/><circle r="4.302514186755474" cx="-72.70026606987108" cy="-31.07307908019748" opacity="0.47223071559905566" fill="#f3f1ee"/><circle r="3.759524264234026" cx="-6.281084197898609" cy="36.319433931900676" opacity="0.714140935027537" fill="#d7b16b"/><circle r="1.08863887341303" cx="33.89569603209891" cy="39.13572879914644" opacity="0.49343397650823256" fill="#d7b16b"/><circle r="2.342226291714944" cx="83.03166510878947" cy="-36.10166133695523" opacity="0.30020053427710147" fill="#d7b16b"/><circle r="4.5980170549298425" cx="-74.51301452326351" cy="23.345372472220888" opacity="0.745598578422404" fill="#f3f1ee"/><circle r="3.9191847189557065" cx="35.538138189427876" cy="27.00180674904336" opacity="0.4021218382349335" fill="#d7b16b"/><circle r="4.807588269273186" cx="70.42856457465872" opacity="0.6441001698153292" fill="#d7b16b" cy="-5.009"/><circle r="1.9162107192773612" cx="60.401268247787456" cy="23.585978380643905" opacity="0.6279189360645141" fill="#d7b16b"/><circle r="1.3390335803957432" cx="-28.629046738414683" cy="-25.84795539414741" opacity="0.5079546691943844" fill="#d7b16b"/><circle r="1.1139511550525953" cx="-40.48055376841929" cy="34.33981414669592" opacity="0.518235380139018" fill="#d7b16b"/><circle r="3.509462735201675" cx="-15.026673061370781" cy="-40.714007034095324" opacity="0.30414844177832856" fill="#f3f1ee"/><circle r="3.3786648817992524" cx="18.77172000749627" cy="-26.416149061245772" opacity="0.622941475882876" fill="#d7b16b"/><circle r="2.8453225104291557" cx="28.974149710741" cy="38.759771906853" opacity="0.2597058550862039" fill="#d7b16b"/><circle r="1.70687777348201" cx="80.90899392528306" cy="11.951629526770018" opacity="0.29786108475844586" fill="#f3f1ee"/><circle r="2.7238473843047113" cx="51.758141490921986" cy="-10.23101327092257" opacity="0.57929822467314" fill="#f3f1ee"/><circle r="2.426512012811729" cx="-30.40273220885237" cy="-0.9576599689392729" opacity="0.6738328260071015" fill="#d7b16b"/><circle r="3.0648398764846325" cx="31.590866358720355" cy="-2.647172540257926" opacity="0.38960812070333944" fill="#d7b16b"/><circle r="3.237381738243972" cx="65.64281899943072" cy="35.396849952077005" opacity="0.5958846636173492" fill="#d7b16b"/><circle r="2.4525872156549653" cx="45.551537218459266" cy="19.19733916198877" opacity="0.3699004499508563" fill="#d7b16b"/><circle r="2.553132370446295" cx="-4.539121321597235" cy="0.4546891884104176" opacity="0.6741469153599364" fill="#d7b16b"/><circle r="1.6785736332472667" cx="23.46722503326539" cy="-4.349116007098691" opacity="0.4478230991832335" fill="#f3f1ee"/><circle r="3.6007955634395943" cx="43.559905926922326" cy="-3.257085161796919" opacity="0.2618091989739718" fill="#f3f1ee"/><circle r="2.617957763657795" cx="-81.40379229397765" cy="-23.97894313438664" opacity="0.3604877633522242" fill="#d7b16b"/><circle r="2.123648824157394" cx="18.01515438753473" cy="17.731885309932586" opacity="0.4366899185207775" fill="#d7b16b"/><circle r="4.4798841602502675" cx="74.75707717095507" cy="-30.23071696088596" opacity="0.5621499268879877" fill="#f3f1ee"/><circle r="1.5879272846105472" cx="-7.604176563567039" cy="-4.709546125169851" opacity="0.35332724274683935" fill="#d7b16b"/><circle r="2.821369771906339" cx="-1.144247057318497" cy="26.259617646258306" opacity="0.4474656191058423" fill="#f3f1ee"/><circle r="4.469023645494044" cx="45.12711674031721" cy="1.969744669586514" opacity="0.4353107314742581" fill="#d7b16b"/><circle r="4.1406334920402" cx="-65.35282260521042" cy="-20.674063401250038" opacity="0.5067656768112181" fill="#f3f1ee"/><circle r="4.826721536908317" cx="76.03123449270949" cy="12.254204012492773" opacity="0.5918557254803904" fill="#f3f1ee"/><circle r="3.6914484577121587" cx="-57.457768539852644" cy="-41.74860003532643" opacity="0.38340197101785833" fill="#f3f1ee"/><circle r="2.3025482377413087" cx="-25.169596892648563" cy="14.904075729854734" opacity="0.5008945446966204" fill="#d7b16b"/><circle r="3.7661610953236844" cx="-56.80324208513864" cy="15.759108315096364" opacity="0.3974512800672509" fill="#d7b16b"/><circle r="1.880849578264658" cx="39.95213131270157" cy="42.64257384930988" opacity="0.3440891928846255" fill="#d7b16b"/><circle r="3.9121683034078663" cx="70.98661269760123" cy="21.87644334492677" opacity="0.5031624489195352" fill="#d7b16b"/><circle r="4.527425237239501" cx="47.94879341873482" cy="4.348030793157402" opacity="0.4460603065969341" fill="#d7b16b"/><circle r="3.9773502731527204" cx="-6.155224989322189" cy="23.23430515351281" opacity="0.683755031642897" fill="#d7b16b"/><circle r="1.4319779378484658" cx="35.04411547828047" cy="44.385818824173754" opacity="0.28554591217722025" fill="#d7b16b"/><circle r="2.103291033798769" cx="-41.02070082935469" cy="43.17144590960547" opacity="0.31664231764851825" fill="#f3f1ee"/><circle r="4.273521553957645" cx="71.98538831488013" cy="-22.234216077952638" opacity="0.5660256858534021" fill="#d7b16b"/><circle r="2.8243936138392676" cx="-74.41471725991879" cy="-19.217478117005154" opacity="0.6919036434558734" fill="#d7b16b"/><circle r="1.46994189295587" cx="-75.39498151408064" cy="-24.01562869618879" opacity="0.47061075540396796" fill="#d7b16b"/><circle r="2.674981399505056" cx="67.78821176173275" cy="-33.65197395503154" opacity="0.5877170169603321" fill="#d7b16b"/><circle r="2.8040298708264926" cx="43.34153840961627" cy="2.213031156875539" opacity="0.38267214222542634" fill="#d7b16b"/><circle r="2.246774250397309" cx="-40.690775905516816" cy="-14.795862715682475" opacity="0.6167816776035988" fill="#d7b16b"/><circle r="4.996200171299349" cx="66.18728203604097" cy="16.427013509568766" opacity="0.6709058594784775" fill="#d7b16b"/><circle r="4.786856601602321" cx="-67.53192603739325" cy="43.02497970864833" opacity="0.27568293495606955" fill="#d7b16b"/><circle r="4.443114311620738" cx="60.05896556104112" cy="36.78567592766563" opacity="0.4252850163867516" fill="#f3f1ee"/><circle r="3.771075689657151" cx="-41.90907256234826" cy="11.19282180432377" opacity="0.344319204749642" fill="#d7b16b"/><circle r="3.7097291062155744" cx="43.5887135852647" cy="-21.412324179656366" opacity="0.36468848455753333" fill="#d7b16b"/><circle r="3.079981903085705" cx="-20.533638849214885" cy="12.692405717953957" opacity="0.7195072997133416" fill="#d7b16b"/><circle r="3.404258457816351" cx="-27.53016589384299" cy="-17.80199095014808" opacity="0.5834680846873552" fill="#d7b16b"/><circle r="2.081739782745529" cx="73.5851015198356" cy="36.368249428211" opacity="0.445828954376448" fill="#f3f1ee"/><circle r="1.3975403339592227" cx="16.875999581999952" cy="-44.34409192036968" opacity="0.44639641921428774" fill="#d7b16b"/><circle r="3.1506830347955077" cx="56.95449306782596" cy="-41.341399661276476" opacity="0.6625590100463727" fill="#d7b16b"/><circle r="3.3177426190290866" cx="-36.81410567274292" cy="-32.89180574130457" opacity="0.643876360482758" fill="#d7b16b"/><circle r="1.5735553049812987" cx="-50.18420881268421" cy="-19.274698974154006" opacity="0.7350477014702121" fill="#d7b16b"/><circle r="4.992916219403199" cx="-63.988338127112044" cy="34.394443571619185" opacity="0.2614730710106784" fill="#f3f1ee"/><circle r="3.6786349347349816" cx="23.45704893001833" cy="-9.081769379025788" opacity="0.7337681935093828" fill="#f3f1ee"/><circle r="2.595895859499358" cx="-62.88185184699489" cy="26.226602803297887" opacity="0.36352985006529204" fill="#f3f1ee"/><circle r="2.3452496741850095" cx="-1.363989236652654" cy="-35.858833245206036" opacity="0.6353806441057519" fill="#d7b16b"/><circle r="2.790575460888038" cx="71.77541304386027" cy="-5.660244457148654" opacity="0.4959922885182678" fill="#d7b16b"/><circle r="4.385956847161292" cx="67.17761073921851" cy="-25.51635273806395" opacity="0.3264520760969809" fill="#d7b16b"/><circle r="2.1253539309967744" cx="-25.059206233722787" cy="-16.439602796889517" opacity="0.5268925794717492" fill="#d7b16b"/><circle r="2.926795759873711" cx="-52.925648503739126" cy="21.233537054183966" opacity="0.5620552528066312" fill="#d7b16b"/><circle r="1.2097689615816898" cx="-14.263306534944594" cy="-19.754282390650538" opacity="0.3914438129733704" fill="#d7b16b"/><circle r="2.088136526980432" cx="-37.33077091176669" cy="28.646913219265915" opacity="0.3436569257059472" fill="#d7b16b"/><circle r="3.2997688480431395" cx="37.21457889843692" cy="33.859383407419415" opacity="0.35121954912110265" fill="#f3f1ee"/><circle r="3.435974505243703" cx="-76.19016698184217" cy="-21.272972586372646" opacity="0.37615566859108135" fill="#f3f1ee"/><circle r="1.4194424160267616" cx="78.84379462305188" cy="-11.791765169080733" opacity="0.7479180949166644" fill="#d7b16b"/><circle r="4.827137024069714" cx="61.87574295721171" cy="42.10320428933779" opacity="0.6739015566714786" fill="#f3f1ee"/><circle r="4.249866649087255" cx="-79.10402459254085" cy="28.7574164570736" opacity="0.6042176362669406" fill="#f3f1ee"/><circle r="2.992694982427514" cx="56.019329958001066" cy="8.726613441154734" opacity="0.632953603266244" fill="#d7b16b"/><circle r="2.403150666808895" cx="83.98747611512651" cy="-10.650004674996726" opacity="0.5647060089319614" fill="#f3f1ee"/><circle r="1.2280012866286678" cx="42.5777918083906" cy="-15.503239689048224" opacity="0.3486288520856799" fill="#d7b16b"/><circle r="3.1886975510805162" cx="25.728187405960334" cy="3.501294876846215" opacity="0.7186614800773012" fill="#f3f1ee"/><circle r="1.543153500509355" cx="-19.42498644930756" cy="5.322578442498344" opacity="0.2589273474204516" fill="#d7b16b"/><circle r="4.01994413273066" cx="37.70185293174183" cy="-36.68052317682113" opacity="0.5033988862608785" fill="#f3f1ee"/><circle r="4.224681092247045" cx="-7.57935597115559" cy="-40.61586201409066" opacity="0.3296274021506858" fill="#d7b16b"/><circle r="4.4814666613011145" cx="27.005757052869157" cy="8.69557707701847" opacity="0.5484682192359158" fill="#f3f1ee"/><circle r="1.5349431973345475" cx="20.732319642941068" cy="4.432426723221906" opacity="0.30466338637985985" fill="#f3f1ee"/><circle r="4.989339197533423" cx="34.608158932171676" cy="12.379592889289237" opacity="0.6877414132739931" fill="#f3f1ee"/><circle r="1.6478516956929665" cx="-40.1660056226547" cy="8.272263757110107" opacity="0.7281716145647479" fill="#f3f1ee"/><circle r="1.9146641532958113" cx="-25.828871736325784" cy="32.01812918397012" opacity="0.41534494761609647" fill="#f3f1ee"/><circle r="1.4784975527562758" cx="37.12895381157036" cy="-5.208078792299751" opacity="0.5753706491643025" fill="#d7b16b"/><circle r="2.356503454237377" cx="76.57665219909182" cy="24.66913468266785" opacity="0.7015641144660621" fill="#d7b16b"/><circle r="3.064261704129819" cx="-79.96306667647035" cy="-38.48963453228341" opacity="0.6419732658712749" fill="#d7b16b"/><circle r="1.1501586989154324" cx="0.03574659651220058" cy="29.752536316855274" opacity="0.36808814760024733" fill="#d7b16b"/><circle r="2.5100468880791618" cx="60.696951501560946" cy="-9.59105165833854" opacity="0.6083577806547306" fill="#d7b16b"/><circle r="2.593326139822066" cx="27.41404611009626" cy="-13.048845478013728" opacity="0.3259397935629462" fill="#d7b16b"/><circle r="1.911014692860316" cx="-59.139812992467995" cy="-37.10039231671489" opacity="0.5134313722692169" fill="#f3f1ee"/><circle r="1.218183927756061" cx="40.77438385410618" cy="31.653958193047007" opacity="0.2559761428164824" fill="#d7b16b"/><circle r="2.825379840503494" cx="42.54814654486583" cy="-16.734387074161617" opacity="0.33022996986550274" fill="#d7b16b"/><circle r="2.593267992436282" cx="-75.21840352254502" cy="32.54736841118614" opacity="0.4190791433221385" fill="#d7b16b"/><circle r="2.232159025230324" cx="48.53184785679882" cy="-26.753815495799245" opacity="0.42275242718115097" fill="#d7b16b"/><circle r="4.4698619965672535" cx="-14.677116663726466" cy="7.253135576275421" opacity="0.6766730533012166" fill="#f3f1ee"/><circle r="3.5110918548626584" cx="78.41742731032569" cy="-35.82857578174307" opacity="0.5406111906304121" fill="#d7b16b"/><circle r="1.6823147220090333" cx="68.32042403572427" cy="3.4323668767238824" opacity="0.2879504413026616" fill="#d7b16b"/><circle r="3.4779348653106954" cx="52.41767198937234" cy="-31.918537324385365" opacity="0.5710389486933418" fill="#d7b16b"/><circle r="2.0303732226149287" cx="3.632542136547483" cy="-44.310114909644135" opacity="0.5617403886057643" fill="#f3f1ee"/><circle r="2.826146019578077" cx="-42.985757698253245" cy="-44.751774771393656" opacity="0.4283201898885072" fill="#f3f1ee"/><circle r="1.3942503918180051" cx="-3.438532001711392" cy="-10.858881303812987" opacity="0.4513749931141277" fill="#f3f1ee"/><circle r="4.073377627455562" cx="10.089195599830411" cy="19.47649241719792" opacity="0.39247902024000303" fill="#d7b16b"/><circle r="2.312254321033928" cx="-9.95621265458418" cy="-15.36277595395475" opacity="0.27680369617978834" fill="#d7b16b"/><circle r="3.2915133677199204" cx="-79.51159009788523" cy="26.39072412463209" opacity="0.5869315934484838" fill="#f3f1ee"/><circle r="1.1657810714989791" cx="-47.38588093602622" cy="-38.29238175566632" opacity="0.46901577682271106" fill="#d7b16b"/><circle r="4.166866900383745" cx="-77.2886166079823" cy="-43.605553285734075" opacity="0.5778313522278798" fill="#d7b16b"/><circle r="1.123703074164483" cx="-47.14992359195762" cy="42.688723817659714" opacity="0.26339998714693086" fill="#d7b16b"/><circle r="4.958216161896619" cx="-29.20144661252519" cy="-8.665228802438538" opacity="0.6969517481811561" fill="#d7b16b"/><circle r="2.116387902006912" cx="-4.06132710558699" cy="-39.23219328934256" opacity="0.4554427295776951" fill="#f3f1ee"/><circle r="2.238073902412652" cx="-60.7585406352078" cy="38.41044334216924" opacity="0.5573670916019151" fill="#d7b16b"/><circle r="3.722620997540704" cx="29.676694375065868" cy="-39.72340949364809" opacity="0.37783557130756246" fill="#d7b16b"/><circle r="1.2265592910513035" cx="54.130375092365995" cy="-42.04946198202174" opacity="0.3932628051413698" fill="#d7b16b"/><circle r="4.976383030271637" cx="-61.64646082062539" opacity="0.2599455259855809" fill="#f3f1ee" cy="-11.478"/><circle r="4.325067666673013" cx="-25.24865672996566" cy="30.244009030533345" opacity="0.6386703153286152" fill="#d7b16b"/><circle r="2.8782861611727797" cx="65.27466968948785" cy="-36.9731422918551" opacity="0.3199764020636133" fill="#f3f1ee"/><circle r="4.740144137330413" cx="-53.12710139173944" cy="43.212732342730824" opacity="0.49315626570630644" fill="#f3f1ee"/><circle r="2.632786336068857" cx="1.5452406342554414" cy="43.91273775511231" opacity="0.716290973215329" fill="#f3f1ee"/></g>
</svg>